<?xml version="1.0" encoding="utf-8" standalone="no"?>
<!DOCTYPE svg PUBLIC "-//W3C//DTD SVG 1.1//EN"
  "http://www.w3.org/Graphics/SVG/1.1/DTD/svg11.dtd">
<svg xmlns:xlink="http://www.w3.org/1999/xlink" width="648pt" height="432pt" viewBox="0 0 648 432" xmlns="http://www.w3.org/2000/svg" version="1.1">
 <metadata>
  <rdf:RDF xmlns:dc="http://purl.org/dc/elements/1.1/" xmlns:cc="http://creativecommons.org/ns#" xmlns:rdf="http://www.w3.org/1999/02/22-rdf-syntax-ns#">
   <cc:Work>
    <dc:type rdf:resource="http://purl.org/dc/dcmitype/StillImage"/>
    <dc:date>2025-02-25T17:09:40.378131</dc:date>
    <dc:format>image/svg+xml</dc:format>
    <dc:creator>
     <cc:Agent>
      <dc:title>Matplotlib v3.10.0, https://matplotlib.org/</dc:title>
     </cc:Agent>
    </dc:creator>
   </cc:Work>
  </rdf:RDF>
 </metadata>
 <defs>
  <style type="text/css">*{stroke-linejoin: round; stroke-linecap: butt}</style>
 </defs>
 <g id="figure_1">
  <g id="patch_1">
   <path d="M 0 432 
L 648 432 
L 648 0 
L 0 0 
z
" style="fill: #ffffff"/>
  </g>
  <g id="axes_1">
   <g id="patch_2">
    <path d="M 73.283907 367.68969 
L 637.2 367.68969 
L 637.2 18.410347 
L 73.283907 18.410347 
z
" style="fill: #ffffff"/>
   </g>
   <g id="matplotlib.axis_1">
    <g id="xtick_1">
     <g id="line2d_1">
      <defs>
       <path id="m1483f26b04" d="M 0 0 
L 0 3.5 
" style="stroke: #000000; stroke-width: 0.8"/>
      </defs>
      <g>
       <use xlink:href="#m1483f26b04" x="98.916456" y="367.68969" style="stroke: #000000; stroke-width: 0.8"/>
      </g>
     </g>
     <g id="text_1">
      <!-- $\mathdefault{6}$ -->
      <g transform="translate(93.890504 389.910384) scale(0.22 -0.22)">
       <defs>
        <path id="CMR17-36" d="M 678 2176 
C 678 3690 1395 4032 1811 4032 
C 1946 4032 2272 4009 2400 3776 
C 2298 3776 2106 3776 2106 3553 
C 2106 3381 2246 3323 2336 3323 
C 2394 3323 2566 3348 2566 3560 
C 2566 3954 2246 4179 1805 4179 
C 1043 4179 243 3390 243 1984 
C 243 253 966 -128 1478 -128 
C 2099 -128 2688 427 2688 1283 
C 2688 2081 2170 2662 1517 2662 
C 1126 2662 838 2407 678 1960 
L 678 2176 
z
M 1478 25 
C 691 25 691 1200 691 1436 
C 691 1896 909 2560 1504 2560 
C 1613 2560 1926 2560 2138 2120 
C 2253 1870 2253 1609 2253 1289 
C 2253 944 2253 690 2118 434 
C 1978 171 1773 25 1478 25 
z
" transform="scale(0.015625)"/>
       </defs>
       <use xlink:href="#CMR17-36" transform="scale(0.996264)"/>
      </g>
     </g>
    </g>
    <g id="xtick_2">
     <g id="line2d_2">
      <g>
       <use xlink:href="#m1483f26b04" x="184.358289" y="367.68969" style="stroke: #000000; stroke-width: 0.8"/>
      </g>
     </g>
     <g id="text_2">
      <!-- $\mathdefault{8}$ -->
      <g transform="translate(179.332336 389.910384) scale(0.22 -0.22)">
       <defs>
        <path id="CMR17-38" d="M 1741 2264 
C 2144 2467 2554 2773 2554 3263 
C 2554 3841 1990 4179 1472 4179 
C 890 4179 378 3759 378 3180 
C 378 3021 416 2747 666 2505 
C 730 2442 998 2251 1171 2130 
C 883 1983 211 1634 211 934 
C 211 279 838 -128 1459 -128 
C 2144 -128 2720 362 2720 1010 
C 2720 1590 2330 1857 2074 2029 
L 1741 2264 
z
M 902 2822 
C 851 2854 595 3051 595 3351 
C 595 3739 998 4032 1459 4032 
C 1965 4032 2336 3676 2336 3262 
C 2336 2669 1670 2331 1638 2331 
C 1632 2331 1626 2331 1574 2370 
L 902 2822 
z
M 2080 1519 
C 2176 1449 2483 1240 2483 851 
C 2483 381 2010 25 1472 25 
C 890 25 448 438 448 940 
C 448 1443 838 1862 1280 2060 
L 2080 1519 
z
" transform="scale(0.015625)"/>
       </defs>
       <use xlink:href="#CMR17-38" transform="scale(0.996264)"/>
      </g>
     </g>
    </g>
    <g id="xtick_3">
     <g id="line2d_3">
      <g>
       <use xlink:href="#m1483f26b04" x="269.800121" y="367.68969" style="stroke: #000000; stroke-width: 0.8"/>
      </g>
     </g>
     <g id="text_3">
      <!-- $\mathdefault{10}$ -->
      <g transform="translate(259.748216 389.910384) scale(0.22 -0.22)">
       <defs>
        <path id="CMR17-31" d="M 1702 4058 
C 1702 4192 1696 4192 1606 4192 
C 1357 3916 979 3827 621 3827 
C 602 3827 570 3827 563 3808 
C 557 3795 557 3782 557 3648 
C 755 3648 1088 3686 1344 3839 
L 1344 461 
C 1344 236 1331 160 781 160 
L 589 160 
L 589 0 
C 896 0 1216 0 1523 0 
C 1830 0 2150 0 2458 0 
L 2458 160 
L 2266 160 
C 1715 160 1702 230 1702 458 
L 1702 4058 
z
" transform="scale(0.015625)"/>
        <path id="CMR17-30" d="M 2688 2025 
C 2688 2416 2682 3080 2413 3591 
C 2176 4039 1798 4198 1466 4198 
C 1158 4198 768 4058 525 3597 
C 269 3118 243 2524 243 2025 
C 243 1661 250 1106 448 619 
C 723 -39 1216 -128 1466 -128 
C 1760 -128 2208 -7 2470 600 
C 2662 1042 2688 1559 2688 2025 
z
M 1466 -26 
C 1056 -26 813 325 723 812 
C 653 1188 653 1738 653 2096 
C 653 2588 653 2997 736 3387 
C 858 3929 1216 4096 1466 4096 
C 1728 4096 2067 3923 2189 3400 
C 2272 3036 2278 2607 2278 2096 
C 2278 1680 2278 1169 2202 792 
C 2067 95 1690 -26 1466 -26 
z
" transform="scale(0.015625)"/>
       </defs>
       <use xlink:href="#CMR17-31" transform="scale(0.996264)"/>
       <use xlink:href="#CMR17-30" transform="translate(45.690477 0) scale(0.996264)"/>
      </g>
     </g>
    </g>
    <g id="xtick_4">
     <g id="line2d_4">
      <g>
       <use xlink:href="#m1483f26b04" x="355.241953" y="367.68969" style="stroke: #000000; stroke-width: 0.8"/>
      </g>
     </g>
     <g id="text_4">
      <!-- $\mathdefault{12}$ -->
      <g transform="translate(345.190048 389.910384) scale(0.22 -0.22)">
       <defs>
        <path id="CMR17-32" d="M 2669 989 
L 2554 989 
C 2490 536 2438 459 2413 420 
C 2381 369 1920 369 1830 369 
L 602 369 
C 832 619 1280 1072 1824 1597 
C 2214 1967 2669 2402 2669 3035 
C 2669 3790 2067 4224 1395 4224 
C 691 4224 262 3604 262 3030 
C 262 2780 448 2748 525 2748 
C 589 2748 781 2787 781 3010 
C 781 3207 614 3264 525 3264 
C 486 3264 448 3258 422 3245 
C 544 3790 915 4058 1306 4058 
C 1862 4058 2227 3617 2227 3035 
C 2227 2479 1901 2000 1536 1584 
L 262 146 
L 262 0 
L 2515 0 
L 2669 989 
z
" transform="scale(0.015625)"/>
       </defs>
       <use xlink:href="#CMR17-31" transform="scale(0.996264)"/>
       <use xlink:href="#CMR17-32" transform="translate(45.690477 0) scale(0.996264)"/>
      </g>
     </g>
    </g>
    <g id="xtick_5">
     <g id="line2d_5">
      <g>
       <use xlink:href="#m1483f26b04" x="440.683786" y="367.68969" style="stroke: #000000; stroke-width: 0.8"/>
      </g>
     </g>
     <g id="text_5">
      <!-- $\mathdefault{14}$ -->
      <g transform="translate(430.631881 389.910384) scale(0.22 -0.22)">
       <defs>
        <path id="CMR17-34" d="M 2150 4122 
C 2150 4256 2144 4256 2029 4256 
L 128 1254 
L 128 1088 
L 1779 1088 
L 1779 457 
C 1779 224 1766 160 1318 160 
L 1197 160 
L 1197 0 
C 1402 0 1747 0 1965 0 
C 2182 0 2528 0 2733 0 
L 2733 160 
L 2611 160 
C 2163 160 2150 224 2150 457 
L 2150 1088 
L 2803 1088 
L 2803 1254 
L 2150 1254 
L 2150 4122 
z
M 1798 3703 
L 1798 1254 
L 256 1254 
L 1798 3703 
z
" transform="scale(0.015625)"/>
       </defs>
       <use xlink:href="#CMR17-31" transform="scale(0.996264)"/>
       <use xlink:href="#CMR17-34" transform="translate(45.690477 0) scale(0.996264)"/>
      </g>
     </g>
    </g>
    <g id="xtick_6">
     <g id="line2d_6">
      <g>
       <use xlink:href="#m1483f26b04" x="526.125618" y="367.68969" style="stroke: #000000; stroke-width: 0.8"/>
      </g>
     </g>
     <g id="text_6">
      <!-- $\mathdefault{16}$ -->
      <g transform="translate(516.073713 389.910384) scale(0.22 -0.22)">
       <use xlink:href="#CMR17-31" transform="scale(0.996264)"/>
       <use xlink:href="#CMR17-36" transform="translate(45.690477 0) scale(0.996264)"/>
      </g>
     </g>
    </g>
    <g id="xtick_7">
     <g id="line2d_7">
      <g>
       <use xlink:href="#m1483f26b04" x="611.56745" y="367.68969" style="stroke: #000000; stroke-width: 0.8"/>
      </g>
     </g>
     <g id="text_7">
      <!-- $\mathdefault{18}$ -->
      <g transform="translate(601.515545 389.910384) scale(0.22 -0.22)">
       <use xlink:href="#CMR17-31" transform="scale(0.996264)"/>
       <use xlink:href="#CMR17-38" transform="translate(45.690477 0) scale(0.996264)"/>
      </g>
     </g>
    </g>
    <g id="text_8">
     <!-- $n$ -->
     <g transform="translate(347.672051 416.161673) scale(0.26 -0.26)">
      <defs>
       <path id="CMMI12-6e" d="M 1318 1871 
C 1331 1910 1491 2229 1728 2433 
C 1894 2586 2112 2689 2362 2689 
C 2618 2689 2707 2497 2707 2242 
C 2707 1878 2445 1150 2317 805 
C 2259 651 2227 568 2227 453 
C 2227 166 2426 -64 2733 -64 
C 3328 -64 3552 875 3552 913 
C 3552 945 3526 971 3488 971 
C 3430 971 3424 952 3392 843 
C 3245 319 3002 64 2752 64 
C 2688 64 2586 64 2586 269 
C 2586 429 2656 621 2694 710 
C 2822 1063 3091 1780 3091 2145 
C 3091 2528 2867 2816 2381 2816 
C 1811 2816 1510 2415 1395 2255 
C 1376 2618 1114 2816 832 2816 
C 627 2816 486 2695 378 2478 
C 262 2248 173 1865 173 1839 
C 173 1814 198 1782 243 1782 
C 294 1782 301 1788 339 1935 
C 442 2325 557 2689 813 2689 
C 960 2689 1011 2586 1011 2395 
C 1011 2254 947 2005 902 1807 
L 723 1118 
C 698 996 627 709 595 594 
C 550 428 480 128 480 96 
C 480 6 550 -64 646 -64 
C 723 -64 813 -26 864 70 
C 877 102 934 326 966 453 
L 1107 1028 
L 1318 1871 
z
" transform="scale(0.015625)"/>
      </defs>
      <use xlink:href="#CMMI12-6e" transform="scale(0.996264)"/>
     </g>
    </g>
   </g>
   <g id="matplotlib.axis_2">
    <g id="ytick_1">
     <g id="line2d_8">
      <defs>
       <path id="m63cbb1bc71" d="M 0 0 
L -3.5 0 
" style="stroke: #000000; stroke-width: 0.8"/>
      </defs>
      <g>
       <use xlink:href="#m63cbb1bc71" x="73.283907" y="330.152227" style="stroke: #000000; stroke-width: 0.8"/>
      </g>
     </g>
     <g id="text_9">
      <!-- $\mathdefault{10^{2}}$ -->
      <g transform="translate(38.668805 337.762574) scale(0.22 -0.22)">
       <use xlink:href="#CMR17-31" transform="scale(0.996264)"/>
       <use xlink:href="#CMR17-30" transform="translate(45.690477 0) scale(0.996264)"/>
       <use xlink:href="#CMR17-32" transform="translate(91.380954 36.153639) scale(0.697382)"/>
      </g>
     </g>
    </g>
    <g id="ytick_2">
     <g id="line2d_9">
      <g>
       <use xlink:href="#m63cbb1bc71" x="73.283907" y="267.803851" style="stroke: #000000; stroke-width: 0.8"/>
      </g>
     </g>
     <g id="text_10">
      <!-- $\mathdefault{10^{3}}$ -->
      <g transform="translate(38.668805 275.414198) scale(0.22 -0.22)">
       <defs>
        <path id="CMR17-33" d="M 1414 2157 
C 1984 2157 2234 1662 2234 1090 
C 2234 320 1824 25 1453 25 
C 1114 25 563 194 390 693 
C 422 680 454 680 486 680 
C 640 680 755 782 755 948 
C 755 1133 614 1216 486 1216 
C 378 1216 211 1165 211 926 
C 211 335 787 -128 1466 -128 
C 2176 -128 2720 430 2720 1085 
C 2720 1707 2208 2157 1600 2227 
C 2086 2328 2554 2756 2554 3329 
C 2554 3820 2048 4179 1472 4179 
C 890 4179 378 3829 378 3329 
C 378 3110 544 3072 627 3072 
C 762 3072 877 3155 877 3321 
C 877 3486 762 3569 627 3569 
C 602 3569 570 3569 544 3557 
C 730 3959 1235 4032 1459 4032 
C 1683 4032 2106 3925 2106 3320 
C 2106 3143 2080 2828 1862 2550 
C 1670 2304 1453 2304 1242 2284 
C 1210 2284 1062 2269 1037 2269 
C 992 2263 966 2257 966 2208 
C 966 2163 973 2157 1101 2157 
L 1414 2157 
z
" transform="scale(0.015625)"/>
       </defs>
       <use xlink:href="#CMR17-31" transform="scale(0.996264)"/>
       <use xlink:href="#CMR17-30" transform="translate(45.690477 0) scale(0.996264)"/>
       <use xlink:href="#CMR17-33" transform="translate(91.380954 36.153639) scale(0.697382)"/>
      </g>
     </g>
    </g>
    <g id="ytick_3">
     <g id="line2d_10">
      <g>
       <use xlink:href="#m63cbb1bc71" x="73.283907" y="205.455475" style="stroke: #000000; stroke-width: 0.8"/>
      </g>
     </g>
     <g id="text_11">
      <!-- $\mathdefault{10^{4}}$ -->
      <g transform="translate(38.668805 213.065822) scale(0.22 -0.22)">
       <use xlink:href="#CMR17-31" transform="scale(0.996264)"/>
       <use xlink:href="#CMR17-30" transform="translate(45.690477 0) scale(0.996264)"/>
       <use xlink:href="#CMR17-34" transform="translate(91.380954 36.153639) scale(0.697382)"/>
      </g>
     </g>
    </g>
    <g id="ytick_4">
     <g id="line2d_11">
      <g>
       <use xlink:href="#m63cbb1bc71" x="73.283907" y="143.107099" style="stroke: #000000; stroke-width: 0.8"/>
      </g>
     </g>
     <g id="text_12">
      <!-- $\mathdefault{10^{5}}$ -->
      <g transform="translate(38.668805 150.717446) scale(0.22 -0.22)">
       <defs>
        <path id="CMR17-35" d="M 730 3692 
C 794 3666 1056 3584 1325 3584 
C 1920 3584 2246 3911 2432 4100 
C 2432 4157 2432 4192 2394 4192 
C 2387 4192 2374 4192 2323 4163 
C 2099 4058 1837 3973 1517 3973 
C 1325 3973 1037 3999 723 4139 
C 653 4171 640 4171 634 4171 
C 602 4171 595 4164 595 4037 
L 595 2203 
C 595 2089 595 2057 659 2057 
C 691 2057 704 2070 736 2114 
C 941 2401 1222 2522 1542 2522 
C 1766 2522 2246 2382 2246 1289 
C 2246 1085 2246 715 2054 421 
C 1894 159 1645 25 1370 25 
C 947 25 518 320 403 814 
C 429 807 480 795 506 795 
C 589 795 749 840 749 1038 
C 749 1210 627 1280 506 1280 
C 358 1280 262 1190 262 1011 
C 262 454 704 -128 1382 -128 
C 2042 -128 2669 440 2669 1264 
C 2669 2030 2170 2624 1549 2624 
C 1222 2624 947 2503 730 2274 
L 730 3692 
z
" transform="scale(0.015625)"/>
       </defs>
       <use xlink:href="#CMR17-31" transform="scale(0.996264)"/>
       <use xlink:href="#CMR17-30" transform="translate(45.690477 0) scale(0.996264)"/>
       <use xlink:href="#CMR17-35" transform="translate(91.380954 36.153639) scale(0.697382)"/>
      </g>
     </g>
    </g>
    <g id="ytick_5">
     <g id="line2d_12">
      <g>
       <use xlink:href="#m63cbb1bc71" x="73.283907" y="80.758723" style="stroke: #000000; stroke-width: 0.8"/>
      </g>
     </g>
     <g id="text_13">
      <!-- $\mathdefault{10^{6}}$ -->
      <g transform="translate(38.668805 88.36907) scale(0.22 -0.22)">
       <use xlink:href="#CMR17-31" transform="scale(0.996264)"/>
       <use xlink:href="#CMR17-30" transform="translate(45.690477 0) scale(0.996264)"/>
       <use xlink:href="#CMR17-36" transform="translate(91.380954 36.153639) scale(0.697382)"/>
      </g>
     </g>
    </g>
    <g id="ytick_6">
     <g id="line2d_13">
      <g>
       <use xlink:href="#m63cbb1bc71" x="73.283907" y="18.410347" style="stroke: #000000; stroke-width: 0.8"/>
      </g>
     </g>
     <g id="text_14">
      <!-- $\mathdefault{10^{7}}$ -->
      <g transform="translate(38.668805 26.020693) scale(0.22 -0.22)">
       <defs>
        <path id="CMR17-37" d="M 2886 3941 
L 2886 4081 
L 1382 4081 
C 634 4081 621 4165 595 4288 
L 480 4288 
L 294 3094 
L 410 3094 
C 429 3215 474 3540 550 3661 
C 589 3712 1062 3712 1171 3712 
L 2579 3712 
L 1869 2661 
C 1395 1954 1069 999 1069 165 
C 1069 89 1069 -128 1299 -128 
C 1530 -128 1530 89 1530 171 
L 1530 465 
C 1530 1508 1709 2196 2003 2636 
L 2886 3941 
z
" transform="scale(0.015625)"/>
       </defs>
       <use xlink:href="#CMR17-31" transform="scale(0.996264)"/>
       <use xlink:href="#CMR17-30" transform="translate(45.690477 0) scale(0.996264)"/>
       <use xlink:href="#CMR17-37" transform="translate(91.380954 36.153639) scale(0.697382)"/>
      </g>
     </g>
    </g>
    <g id="ytick_7">
     <g id="line2d_14">
      <defs>
       <path id="m29d9195d0e" d="M 0 0 
L -2 0 
" style="stroke: #000000; stroke-width: 0.6"/>
      </defs>
      <g>
       <use xlink:href="#m29d9195d0e" x="73.283907" y="362.752868" style="stroke: #000000; stroke-width: 0.6"/>
      </g>
     </g>
    </g>
    <g id="ytick_8">
     <g id="line2d_15">
      <g>
       <use xlink:href="#m29d9195d0e" x="73.283907" y="354.963141" style="stroke: #000000; stroke-width: 0.6"/>
      </g>
     </g>
    </g>
    <g id="ytick_9">
     <g id="line2d_16">
      <g>
       <use xlink:href="#m29d9195d0e" x="73.283907" y="348.920959" style="stroke: #000000; stroke-width: 0.6"/>
      </g>
     </g>
    </g>
    <g id="ytick_10">
     <g id="line2d_17">
      <g>
       <use xlink:href="#m29d9195d0e" x="73.283907" y="343.984137" style="stroke: #000000; stroke-width: 0.6"/>
      </g>
     </g>
    </g>
    <g id="ytick_11">
     <g id="line2d_18">
      <g>
       <use xlink:href="#m29d9195d0e" x="73.283907" y="339.810113" style="stroke: #000000; stroke-width: 0.6"/>
      </g>
     </g>
    </g>
    <g id="ytick_12">
     <g id="line2d_19">
      <g>
       <use xlink:href="#m29d9195d0e" x="73.283907" y="336.194409" style="stroke: #000000; stroke-width: 0.6"/>
      </g>
     </g>
    </g>
    <g id="ytick_13">
     <g id="line2d_20">
      <g>
       <use xlink:href="#m29d9195d0e" x="73.283907" y="333.005133" style="stroke: #000000; stroke-width: 0.6"/>
      </g>
     </g>
    </g>
    <g id="ytick_14">
     <g id="line2d_21">
      <g>
       <use xlink:href="#m29d9195d0e" x="73.283907" y="311.383496" style="stroke: #000000; stroke-width: 0.6"/>
      </g>
     </g>
    </g>
    <g id="ytick_15">
     <g id="line2d_22">
      <g>
       <use xlink:href="#m29d9195d0e" x="73.283907" y="300.404492" style="stroke: #000000; stroke-width: 0.6"/>
      </g>
     </g>
    </g>
    <g id="ytick_16">
     <g id="line2d_23">
      <g>
       <use xlink:href="#m29d9195d0e" x="73.283907" y="292.614765" style="stroke: #000000; stroke-width: 0.6"/>
      </g>
     </g>
    </g>
    <g id="ytick_17">
     <g id="line2d_24">
      <g>
       <use xlink:href="#m29d9195d0e" x="73.283907" y="286.572583" style="stroke: #000000; stroke-width: 0.6"/>
      </g>
     </g>
    </g>
    <g id="ytick_18">
     <g id="line2d_25">
      <g>
       <use xlink:href="#m29d9195d0e" x="73.283907" y="281.635761" style="stroke: #000000; stroke-width: 0.6"/>
      </g>
     </g>
    </g>
    <g id="ytick_19">
     <g id="line2d_26">
      <g>
       <use xlink:href="#m29d9195d0e" x="73.283907" y="277.461737" style="stroke: #000000; stroke-width: 0.6"/>
      </g>
     </g>
    </g>
    <g id="ytick_20">
     <g id="line2d_27">
      <g>
       <use xlink:href="#m29d9195d0e" x="73.283907" y="273.846033" style="stroke: #000000; stroke-width: 0.6"/>
      </g>
     </g>
    </g>
    <g id="ytick_21">
     <g id="line2d_28">
      <g>
       <use xlink:href="#m29d9195d0e" x="73.283907" y="270.656756" style="stroke: #000000; stroke-width: 0.6"/>
      </g>
     </g>
    </g>
    <g id="ytick_22">
     <g id="line2d_29">
      <g>
       <use xlink:href="#m29d9195d0e" x="73.283907" y="249.03512" style="stroke: #000000; stroke-width: 0.6"/>
      </g>
     </g>
    </g>
    <g id="ytick_23">
     <g id="line2d_30">
      <g>
       <use xlink:href="#m29d9195d0e" x="73.283907" y="238.056116" style="stroke: #000000; stroke-width: 0.6"/>
      </g>
     </g>
    </g>
    <g id="ytick_24">
     <g id="line2d_31">
      <g>
       <use xlink:href="#m29d9195d0e" x="73.283907" y="230.266388" style="stroke: #000000; stroke-width: 0.6"/>
      </g>
     </g>
    </g>
    <g id="ytick_25">
     <g id="line2d_32">
      <g>
       <use xlink:href="#m29d9195d0e" x="73.283907" y="224.224206" style="stroke: #000000; stroke-width: 0.6"/>
      </g>
     </g>
    </g>
    <g id="ytick_26">
     <g id="line2d_33">
      <g>
       <use xlink:href="#m29d9195d0e" x="73.283907" y="219.287384" style="stroke: #000000; stroke-width: 0.6"/>
      </g>
     </g>
    </g>
    <g id="ytick_27">
     <g id="line2d_34">
      <g>
       <use xlink:href="#m29d9195d0e" x="73.283907" y="215.113361" style="stroke: #000000; stroke-width: 0.6"/>
      </g>
     </g>
    </g>
    <g id="ytick_28">
     <g id="line2d_35">
      <g>
       <use xlink:href="#m29d9195d0e" x="73.283907" y="211.497657" style="stroke: #000000; stroke-width: 0.6"/>
      </g>
     </g>
    </g>
    <g id="ytick_29">
     <g id="line2d_36">
      <g>
       <use xlink:href="#m29d9195d0e" x="73.283907" y="208.30838" style="stroke: #000000; stroke-width: 0.6"/>
      </g>
     </g>
    </g>
    <g id="ytick_30">
     <g id="line2d_37">
      <g>
       <use xlink:href="#m29d9195d0e" x="73.283907" y="186.686744" style="stroke: #000000; stroke-width: 0.6"/>
      </g>
     </g>
    </g>
    <g id="ytick_31">
     <g id="line2d_38">
      <g>
       <use xlink:href="#m29d9195d0e" x="73.283907" y="175.70774" style="stroke: #000000; stroke-width: 0.6"/>
      </g>
     </g>
    </g>
    <g id="ytick_32">
     <g id="line2d_39">
      <g>
       <use xlink:href="#m29d9195d0e" x="73.283907" y="167.918012" style="stroke: #000000; stroke-width: 0.6"/>
      </g>
     </g>
    </g>
    <g id="ytick_33">
     <g id="line2d_40">
      <g>
       <use xlink:href="#m29d9195d0e" x="73.283907" y="161.87583" style="stroke: #000000; stroke-width: 0.6"/>
      </g>
     </g>
    </g>
    <g id="ytick_34">
     <g id="line2d_41">
      <g>
       <use xlink:href="#m29d9195d0e" x="73.283907" y="156.939008" style="stroke: #000000; stroke-width: 0.6"/>
      </g>
     </g>
    </g>
    <g id="ytick_35">
     <g id="line2d_42">
      <g>
       <use xlink:href="#m29d9195d0e" x="73.283907" y="152.764985" style="stroke: #000000; stroke-width: 0.6"/>
      </g>
     </g>
    </g>
    <g id="ytick_36">
     <g id="line2d_43">
      <g>
       <use xlink:href="#m29d9195d0e" x="73.283907" y="149.149281" style="stroke: #000000; stroke-width: 0.6"/>
      </g>
     </g>
    </g>
    <g id="ytick_37">
     <g id="line2d_44">
      <g>
       <use xlink:href="#m29d9195d0e" x="73.283907" y="145.960004" style="stroke: #000000; stroke-width: 0.6"/>
      </g>
     </g>
    </g>
    <g id="ytick_38">
     <g id="line2d_45">
      <g>
       <use xlink:href="#m29d9195d0e" x="73.283907" y="124.338368" style="stroke: #000000; stroke-width: 0.6"/>
      </g>
     </g>
    </g>
    <g id="ytick_39">
     <g id="line2d_46">
      <g>
       <use xlink:href="#m29d9195d0e" x="73.283907" y="113.359364" style="stroke: #000000; stroke-width: 0.6"/>
      </g>
     </g>
    </g>
    <g id="ytick_40">
     <g id="line2d_47">
      <g>
       <use xlink:href="#m29d9195d0e" x="73.283907" y="105.569636" style="stroke: #000000; stroke-width: 0.6"/>
      </g>
     </g>
    </g>
    <g id="ytick_41">
     <g id="line2d_48">
      <g>
       <use xlink:href="#m29d9195d0e" x="73.283907" y="99.527454" style="stroke: #000000; stroke-width: 0.6"/>
      </g>
     </g>
    </g>
    <g id="ytick_42">
     <g id="line2d_49">
      <g>
       <use xlink:href="#m29d9195d0e" x="73.283907" y="94.590632" style="stroke: #000000; stroke-width: 0.6"/>
      </g>
     </g>
    </g>
    <g id="ytick_43">
     <g id="line2d_50">
      <g>
       <use xlink:href="#m29d9195d0e" x="73.283907" y="90.416608" style="stroke: #000000; stroke-width: 0.6"/>
      </g>
     </g>
    </g>
    <g id="ytick_44">
     <g id="line2d_51">
      <g>
       <use xlink:href="#m29d9195d0e" x="73.283907" y="86.800905" style="stroke: #000000; stroke-width: 0.6"/>
      </g>
     </g>
    </g>
    <g id="ytick_45">
     <g id="line2d_52">
      <g>
       <use xlink:href="#m29d9195d0e" x="73.283907" y="83.611628" style="stroke: #000000; stroke-width: 0.6"/>
      </g>
     </g>
    </g>
    <g id="ytick_46">
     <g id="line2d_53">
      <g>
       <use xlink:href="#m29d9195d0e" x="73.283907" y="61.989991" style="stroke: #000000; stroke-width: 0.6"/>
      </g>
     </g>
    </g>
    <g id="ytick_47">
     <g id="line2d_54">
      <g>
       <use xlink:href="#m29d9195d0e" x="73.283907" y="51.010987" style="stroke: #000000; stroke-width: 0.6"/>
      </g>
     </g>
    </g>
    <g id="ytick_48">
     <g id="line2d_55">
      <g>
       <use xlink:href="#m29d9195d0e" x="73.283907" y="43.22126" style="stroke: #000000; stroke-width: 0.6"/>
      </g>
     </g>
    </g>
    <g id="ytick_49">
     <g id="line2d_56">
      <g>
       <use xlink:href="#m29d9195d0e" x="73.283907" y="37.179078" style="stroke: #000000; stroke-width: 0.6"/>
      </g>
     </g>
    </g>
    <g id="ytick_50">
     <g id="line2d_57">
      <g>
       <use xlink:href="#m29d9195d0e" x="73.283907" y="32.242256" style="stroke: #000000; stroke-width: 0.6"/>
      </g>
     </g>
    </g>
    <g id="ytick_51">
     <g id="line2d_58">
      <g>
       <use xlink:href="#m29d9195d0e" x="73.283907" y="28.068232" style="stroke: #000000; stroke-width: 0.6"/>
      </g>
     </g>
    </g>
    <g id="ytick_52">
     <g id="line2d_59">
      <g>
       <use xlink:href="#m29d9195d0e" x="73.283907" y="24.452529" style="stroke: #000000; stroke-width: 0.6"/>
      </g>
     </g>
    </g>
    <g id="ytick_53">
     <g id="line2d_60">
      <g>
       <use xlink:href="#m29d9195d0e" x="73.283907" y="21.263252" style="stroke: #000000; stroke-width: 0.6"/>
      </g>
     </g>
    </g>
    <g id="text_15">
     <!-- Time (s) -->
     <g transform="translate(28.711226 234.477011) rotate(-90) scale(0.24 -0.24)">
      <defs>
       <path id="CMR17-54" d="M 3981 4326 
L 288 4326 
L 179 2918 
L 294 2918 
C 378 3976 467 4160 1453 4160 
C 1568 4160 1754 4160 1805 4154 
C 1926 4135 1926 4058 1926 3912 
L 1926 459 
C 1926 230 1907 160 1376 160 
L 1197 160 
L 1197 0 
C 1504 0 1824 0 2138 0 
C 2451 0 2771 0 3078 0 
L 3078 160 
L 2899 160 
C 2368 160 2349 230 2349 459 
L 2349 3912 
C 2349 4052 2349 4129 2464 4154 
C 2515 4160 2701 4160 2816 4160 
C 3795 4160 3891 3976 3974 2918 
L 4090 2918 
L 3981 4326 
z
" transform="scale(0.015625)"/>
       <path id="CMR17-69" d="M 992 3909 
C 992 4049 877 4170 730 4170 
C 589 4170 467 4056 467 3909 
C 467 3769 582 3648 730 3648 
C 870 3648 992 3763 992 3909 
z
M 243 2706 
L 243 2541 
C 602 2541 653 2502 653 2197 
L 653 427 
C 653 184 627 153 218 153 
L 218 -13 
C 371 0 646 0 806 0 
C 960 0 1222 0 1370 -13 
L 1370 153 
C 992 153 979 191 979 420 
L 979 2776 
L 243 2706 
z
" transform="scale(0.015625)"/>
       <path id="CMR17-6d" d="M 4326 1933 
C 4326 2252 4269 2790 3507 2790 
C 3072 2790 2771 2496 2656 2151 
L 2650 2151 
C 2573 2676 2195 2790 1837 2790 
C 1331 2790 1069 2400 973 2144 
L 966 2144 
L 966 2790 
L 211 2720 
L 211 2554 
C 589 2554 646 2515 646 2208 
L 646 428 
C 646 184 621 153 211 153 
L 211 -13 
C 365 0 646 0 813 0 
C 979 0 1267 0 1421 -13 
L 1421 153 
C 1011 153 986 178 986 428 
L 986 1658 
C 986 2247 1344 2688 1792 2688 
C 2266 2688 2317 2266 2317 1958 
L 2317 428 
C 2317 184 2291 153 1882 153 
L 1882 -13 
C 2035 0 2317 0 2483 0 
C 2650 0 2938 0 3091 -13 
L 3091 153 
C 2682 153 2656 178 2656 428 
L 2656 1658 
C 2656 2247 3014 2688 3462 2688 
C 3936 2688 3987 2266 3987 1958 
L 3987 428 
C 3987 184 3962 153 3552 153 
L 3552 -13 
C 3706 0 3987 0 4154 0 
C 4320 0 4608 0 4762 -13 
L 4762 153 
C 4352 153 4326 178 4326 428 
L 4326 1933 
z
" transform="scale(0.015625)"/>
       <path id="CMR17-65" d="M 2438 1472 
C 2464 1498 2464 1511 2464 1576 
C 2464 2238 2118 2816 1389 2816 
C 710 2816 173 2169 173 1383 
C 173 551 781 -64 1459 -64 
C 2176 -64 2458 607 2458 740 
C 2458 784 2419 784 2406 784 
C 2362 784 2355 771 2330 696 
C 2189 265 1837 51 1504 51 
C 1229 51 954 203 781 480 
C 582 803 582 1176 582 1472 
L 2438 1472 
z
M 589 1568 
C 634 2505 1126 2714 1382 2714 
C 1818 2714 2112 2297 2118 1568 
L 589 1568 
z
" transform="scale(0.015625)"/>
       <path id="CMR17-28" d="M 1958 -1561 
C 1958 -1555 1958 -1542 1939 -1523 
C 1645 -1224 858 -407 858 1581 
C 858 3569 1632 4379 1946 4697 
C 1946 4704 1958 4717 1958 4736 
C 1958 4755 1939 4768 1914 4768 
C 1843 4768 1299 4296 986 3594 
C 666 2887 576 2199 576 1588 
C 576 1128 621 351 1005 -471 
C 1312 -1135 1837 -1600 1914 -1600 
C 1946 -1600 1958 -1587 1958 -1561 
z
" transform="scale(0.015625)"/>
       <path id="CMR17-73" d="M 1978 2697 
C 1978 2813 1971 2819 1933 2819 
C 1907 2819 1901 2813 1824 2717 
C 1805 2691 1747 2626 1728 2601 
C 1523 2819 1235 2819 1126 2819 
C 416 2819 160 2447 160 2076 
C 160 1498 813 1365 998 1325 
C 1402 1243 1542 1217 1677 1101 
C 1760 1025 1901 884 1901 654 
C 1901 384 1747 38 1158 38 
C 602 38 403 460 288 1021 
C 269 1110 269 1117 218 1117 
C 166 1117 160 1110 160 983 
L 160 63 
C 160 -51 166 -58 205 -58 
C 237 -58 243 -51 275 0 
C 314 57 410 211 448 276 
C 576 103 800 -64 1158 -64 
C 1792 -64 2131 283 2131 784 
C 2131 1112 1958 1285 1875 1362 
C 1683 1561 1459 1606 1190 1657 
C 838 1735 390 1825 390 2217 
C 390 2383 480 2737 1126 2737 
C 1811 2737 1850 2094 1862 1888 
C 1869 1856 1901 1849 1920 1849 
C 1978 1849 1978 1869 1978 1978 
L 1978 2697 
z
" transform="scale(0.015625)"/>
       <path id="CMR17-29" d="M 1683 1581 
C 1683 2040 1638 2817 1254 3639 
C 947 4303 422 4768 346 4768 
C 326 4768 301 4761 301 4729 
C 301 4717 307 4710 314 4697 
C 621 4378 1402 3568 1402 1584 
C 1402 -407 627 -1217 314 -1537 
C 307 -1549 301 -1556 301 -1568 
C 301 -1600 326 -1600 346 -1600 
C 416 -1600 960 -1128 1274 -426 
C 1594 281 1683 969 1683 1581 
z
" transform="scale(0.015625)"/>
      </defs>
      <use xlink:href="#CMR17-54" transform="scale(0.996264)"/>
      <use xlink:href="#CMR17-69" transform="translate(66.509881 0) scale(0.996264)"/>
      <use xlink:href="#CMR17-6d" transform="translate(91.380939 0) scale(0.996264)"/>
      <use xlink:href="#CMR17-65" transform="translate(168.300529 0) scale(0.996264)"/>
      <use xlink:href="#CMR17-28" transform="translate(238.862156 0) scale(0.996264)"/>
      <use xlink:href="#CMR17-73" transform="translate(274.142924 0) scale(0.996264)"/>
      <use xlink:href="#CMR17-29" transform="translate(309.944261 0) scale(0.996264)"/>
     </g>
    </g>
   </g>
   <g id="LineCollection_1">
    <path d="M 98.916456 372.911848 
L 98.916456 332.517783 
" clip-path="url(#p5826a10992)" style="fill: none; stroke: #c46e00; stroke-width: 1.5"/>
    <path d="M 184.358289 356.726621 
L 184.358289 321.459332 
" clip-path="url(#p5826a10992)" style="fill: none; stroke: #c46e00; stroke-width: 1.5"/>
    <path d="M 269.800121 302.399194 
L 269.800121 266.278449 
" clip-path="url(#p5826a10992)" style="fill: none; stroke: #c46e00; stroke-width: 1.5"/>
    <path d="M 355.241953 253.06724 
L 355.241953 208.438589 
" clip-path="url(#p5826a10992)" style="fill: none; stroke: #c46e00; stroke-width: 1.5"/>
    <path d="M 440.683786 189.584731 
L 440.683786 153.765421 
" clip-path="url(#p5826a10992)" style="fill: none; stroke: #c46e00; stroke-width: 1.5"/>
    <path d="M 526.125618 150.253399 
L 526.125618 111.209422 
" clip-path="url(#p5826a10992)" style="fill: none; stroke: #c46e00; stroke-width: 1.5"/>
   </g>
   <g id="line2d_61">
    <defs>
     <path id="m4a5c4b0a09" d="M 5 0 
L -5 -0 
" style="stroke: #c46e00"/>
    </defs>
    <g clip-path="url(#p5826a10992)">
     <use xlink:href="#m4a5c4b0a09" x="98.916456" y="372.911848" style="fill: #c46e00; stroke: #c46e00"/>
     <use xlink:href="#m4a5c4b0a09" x="184.358289" y="356.726621" style="fill: #c46e00; stroke: #c46e00"/>
     <use xlink:href="#m4a5c4b0a09" x="269.800121" y="302.399194" style="fill: #c46e00; stroke: #c46e00"/>
     <use xlink:href="#m4a5c4b0a09" x="355.241953" y="253.06724" style="fill: #c46e00; stroke: #c46e00"/>
     <use xlink:href="#m4a5c4b0a09" x="440.683786" y="189.584731" style="fill: #c46e00; stroke: #c46e00"/>
     <use xlink:href="#m4a5c4b0a09" x="526.125618" y="150.253399" style="fill: #c46e00; stroke: #c46e00"/>
    </g>
   </g>
   <g id="line2d_62">
    <g clip-path="url(#p5826a10992)">
     <use xlink:href="#m4a5c4b0a09" x="98.916456" y="332.517783" style="fill: #c46e00; stroke: #c46e00"/>
     <use xlink:href="#m4a5c4b0a09" x="184.358289" y="321.459332" style="fill: #c46e00; stroke: #c46e00"/>
     <use xlink:href="#m4a5c4b0a09" x="269.800121" y="266.278449" style="fill: #c46e00; stroke: #c46e00"/>
     <use xlink:href="#m4a5c4b0a09" x="355.241953" y="208.438589" style="fill: #c46e00; stroke: #c46e00"/>
     <use xlink:href="#m4a5c4b0a09" x="440.683786" y="153.765421" style="fill: #c46e00; stroke: #c46e00"/>
     <use xlink:href="#m4a5c4b0a09" x="526.125618" y="111.209422" style="fill: #c46e00; stroke: #c46e00"/>
    </g>
   </g>
   <g id="line2d_63">
    <path d="M 98.916456 352.142902 
L 184.358289 342.715808 
L 269.800121 330.191725 
L 355.241953 315.806965 
L 440.683786 297.219551 
L 526.125618 268.031979 
L 611.56745 224.040204 
" clip-path="url(#p5826a10992)" style="fill: none; stroke-dasharray: 5.55,2.4; stroke-dashoffset: 0; stroke: #2c853c; stroke-width: 1.5"/>
    <defs>
     <path id="m1128bb27c4" d="M -4 4 
L 4 4 
L 4 -4 
L -4 -4 
z
" style="stroke: #2c853c; stroke-linejoin: miter"/>
    </defs>
    <g clip-path="url(#p5826a10992)">
     <use xlink:href="#m1128bb27c4" x="98.916456" y="352.142902" style="fill: #80b589; stroke: #2c853c; stroke-linejoin: miter"/>
     <use xlink:href="#m1128bb27c4" x="184.358289" y="342.715808" style="fill: #80b589; stroke: #2c853c; stroke-linejoin: miter"/>
     <use xlink:href="#m1128bb27c4" x="269.800121" y="330.191725" style="fill: #80b589; stroke: #2c853c; stroke-linejoin: miter"/>
     <use xlink:href="#m1128bb27c4" x="355.241953" y="315.806965" style="fill: #80b589; stroke: #2c853c; stroke-linejoin: miter"/>
     <use xlink:href="#m1128bb27c4" x="440.683786" y="297.219551" style="fill: #80b589; stroke: #2c853c; stroke-linejoin: miter"/>
     <use xlink:href="#m1128bb27c4" x="526.125618" y="268.031979" style="fill: #80b589; stroke: #2c853c; stroke-linejoin: miter"/>
     <use xlink:href="#m1128bb27c4" x="611.56745" y="224.040204" style="fill: #80b589; stroke: #2c853c; stroke-linejoin: miter"/>
    </g>
   </g>
   <g id="line2d_64">
    <path d="M 98.916456 362.473785 
L 184.358289 345.623884 
L 269.800121 290.973361 
L 355.241953 240.006134 
L 440.683786 181.661186 
L 526.125618 142.371545 
" clip-path="url(#p5826a10992)" style="fill: none; stroke-dasharray: 5.55,2.4; stroke-dashoffset: 0; stroke: #c46e00; stroke-width: 1.5"/>
    <defs>
     <path id="md792dc7b06" d="M 0 4.5 
C 1.193414 4.5 2.338109 4.025852 3.181981 3.181981 
C 4.025852 2.338109 4.5 1.193414 4.5 0 
C 4.5 -1.193414 4.025852 -2.338109 3.181981 -3.181981 
C 2.338109 -4.025852 1.193414 -4.5 0 -4.5 
C -1.193414 -4.5 -2.338109 -4.025852 -3.181981 -3.181981 
C -4.025852 -2.338109 -4.5 -1.193414 -4.5 0 
C -4.5 1.193414 -4.025852 2.338109 -3.181981 3.181981 
C -2.338109 4.025852 -1.193414 4.5 0 4.5 
z
" style="stroke: #c46e00"/>
    </defs>
    <g clip-path="url(#p5826a10992)">
     <use xlink:href="#md792dc7b06" x="98.916456" y="362.473785" style="fill: #dba765; stroke: #c46e00"/>
     <use xlink:href="#md792dc7b06" x="184.358289" y="345.623884" style="fill: #dba765; stroke: #c46e00"/>
     <use xlink:href="#md792dc7b06" x="269.800121" y="290.973361" style="fill: #dba765; stroke: #c46e00"/>
     <use xlink:href="#md792dc7b06" x="355.241953" y="240.006134" style="fill: #dba765; stroke: #c46e00"/>
     <use xlink:href="#md792dc7b06" x="440.683786" y="181.661186" style="fill: #dba765; stroke: #c46e00"/>
     <use xlink:href="#md792dc7b06" x="526.125618" y="142.371545" style="fill: #dba765; stroke: #c46e00"/>
    </g>
   </g>
   <g id="patch_3">
    <path d="M 73.283907 367.68969 
L 73.283907 18.410347 
" style="fill: none; stroke: #000000; stroke-width: 0.8; stroke-linejoin: miter; stroke-linecap: square"/>
   </g>
   <g id="patch_4">
    <path d="M 637.2 367.68969 
L 637.2 18.410347 
" style="fill: none; stroke: #000000; stroke-width: 0.8; stroke-linejoin: miter; stroke-linecap: square"/>
   </g>
   <g id="patch_5">
    <path d="M 73.283907 367.68969 
L 637.2 367.68969 
" style="fill: none; stroke: #000000; stroke-width: 0.8; stroke-linejoin: miter; stroke-linecap: square"/>
   </g>
   <g id="patch_6">
    <path d="M 73.283907 18.410347 
L 637.2 18.410347 
" style="fill: none; stroke: #000000; stroke-width: 0.8; stroke-linejoin: miter; stroke-linecap: square"/>
   </g>
   <g id="legend_1">
    <g id="line2d_65">
     <path d="M 518.617687 310.938423 
L 538.617687 310.938423 
L 558.617687 310.938423 
" style="fill: none; stroke-dasharray: 5.55,2.4; stroke-dashoffset: 0; stroke: #2c853c; stroke-width: 1.5"/>
     <g>
      <use xlink:href="#m1128bb27c4" x="538.617687" y="310.938423" style="fill: #80b589; stroke: #2c853c; stroke-linejoin: miter"/>
     </g>
    </g>
    <g id="text_16">
     <!-- QMC -->
     <g transform="translate(574.617687 317.938423) scale(0.2 -0.2)">
      <defs>
       <path id="CMR17-51" d="M 3027 83 
C 3789 408 4307 1236 4307 2193 
C 4307 3499 3366 4480 2304 4480 
C 1216 4480 294 3488 294 2199 
C 294 928 1216 -64 2304 -64 
C 2451 -64 2656 -45 2899 38 
C 3008 -747 3078 -1216 3629 -1216 
C 4307 -1216 4339 -213 4339 -33 
C 4339 32 4339 76 4294 76 
C 4262 76 4256 31 4256 18 
C 4211 -603 3866 -732 3661 -732 
C 3283 -732 3149 -394 3027 83 
z
M 1958 100 
C 1293 310 768 1017 768 2199 
C 768 3711 1606 4365 2298 4365 
C 3014 4365 3834 3686 3834 2198 
C 3834 1124 3405 527 2976 254 
C 2880 579 2726 960 2310 960 
C 2003 960 1830 692 1830 450 
C 1830 304 1888 183 1958 100 
z
M 2874 192 
C 2618 57 2413 57 2304 57 
C 2016 57 1933 315 1933 454 
C 1933 650 2067 858 2310 858 
C 2720 858 2822 493 2874 192 
z
" transform="scale(0.015625)"/>
       <path id="CMR17-4d" d="M 1338 4224 
C 1299 4320 1293 4320 1158 4320 
L 339 4320 
L 339 4160 
C 781 4160 851 4160 851 3875 
L 851 610 
C 851 451 851 153 339 153 
L 339 -13 
C 486 0 755 0 915 0 
C 1075 0 1344 0 1491 -13 
L 1491 153 
C 979 153 979 451 979 610 
L 979 4135 
L 986 4135 
L 2490 89 
C 2515 25 2528 -13 2579 -13 
C 2630 -13 2643 25 2669 89 
L 4186 4166 
L 4192 4166 
L 4192 438 
C 4192 153 4122 153 3680 153 
L 3680 -13 
C 3853 0 4198 0 4384 0 
C 4570 0 4922 0 5094 -13 
L 5094 153 
C 4653 153 4582 153 4582 438 
L 4582 3875 
C 4582 4160 4653 4160 5094 4160 
L 5094 4320 
L 4282 4320 
C 4147 4320 4141 4314 4102 4218 
L 2720 502 
L 1338 4224 
z
" transform="scale(0.015625)"/>
       <path id="CMR17-43" d="M 3974 4289 
C 3974 4403 3968 4410 3930 4410 
C 3904 4410 3898 4403 3853 4327 
L 3571 3792 
C 3258 4187 2874 4416 2381 4416 
C 1286 4416 294 3456 294 2148 
C 294 826 1286 -128 2387 -128 
C 3366 -128 3974 730 3974 1461 
C 3974 1524 3974 1550 3917 1550 
C 3866 1550 3866 1531 3859 1474 
C 3808 585 3168 38 2477 38 
C 1824 38 781 495 781 2147 
C 781 3805 1843 4250 2464 4250 
C 3187 4250 3712 3628 3834 2745 
C 3846 2668 3846 2655 3904 2655 
C 3974 2655 3974 2668 3974 2783 
L 3974 4289 
z
" transform="scale(0.015625)"/>
      </defs>
      <use xlink:href="#CMR17-51" transform="scale(0.996264)"/>
      <use xlink:href="#CMR17-4d" transform="translate(71.714788 0) scale(0.996264)"/>
      <use xlink:href="#CMR17-43" transform="translate(156.401729 0) scale(0.996264)"/>
     </g>
    </g>
    <g id="LineCollection_2">
     <path d="M 538.617687 348.814057 
L 538.617687 328.814057 
" style="fill: none; stroke: #c46e00; stroke-width: 1.5"/>
    </g>
    <g id="line2d_66">
     <g>
      <use xlink:href="#m4a5c4b0a09" x="538.617687" y="348.814057" style="fill: #c46e00; stroke: #c46e00"/>
     </g>
    </g>
    <g id="line2d_67">
     <g>
      <use xlink:href="#m4a5c4b0a09" x="538.617687" y="328.814057" style="fill: #c46e00; stroke: #c46e00"/>
     </g>
    </g>
    <g id="line2d_68">
     <path d="M 518.617687 338.814057 
L 558.617687 338.814057 
" style="fill: none; stroke-dasharray: 5.55,2.4; stroke-dashoffset: 0; stroke: #c46e00; stroke-width: 1.5"/>
    </g>
    <g id="line2d_69">
     <g>
      <use xlink:href="#md792dc7b06" x="538.617687" y="338.814057" style="fill: #dba765; stroke: #c46e00"/>
     </g>
    </g>
    <g id="text_17">
     <!-- QT -->
     <g transform="translate(574.617687 345.814057) scale(0.2 -0.2)">
      <use xlink:href="#CMR17-51" transform="scale(0.996264)"/>
      <use xlink:href="#CMR17-54" transform="translate(71.714788 0) scale(0.996264)"/>
     </g>
    </g>
   </g>
  </g>
  <g id="axes_2">
   <g id="patch_7">
    <path d="M 132.495097 173.839655 
L 352.422373 173.839655 
L 352.422373 37.620711 
L 132.495097 37.620711 
z
" style="fill: #ffffff"/>
   </g>
   <g id="matplotlib.axis_3">
    <g id="xtick_8">
     <g id="line2d_70">
      <g>
       <use xlink:href="#m1483f26b04" x="140.953838" y="173.839655" style="stroke: #000000; stroke-width: 0.8"/>
      </g>
     </g>
     <g id="text_18">
      <!-- $\mathdefault{6}$ -->
      <g transform="translate(137.070147 192.601106) scale(0.17 -0.17)">
       <use xlink:href="#CMR17-36" transform="scale(0.996264)"/>
      </g>
     </g>
    </g>
    <g id="xtick_9">
     <g id="line2d_71">
      <g>
       <use xlink:href="#m1483f26b04" x="174.788804" y="173.839655" style="stroke: #000000; stroke-width: 0.8"/>
      </g>
     </g>
     <g id="text_19">
      <!-- $\mathdefault{8}$ -->
      <g transform="translate(170.905113 192.601106) scale(0.17 -0.17)">
       <use xlink:href="#CMR17-38" transform="scale(0.996264)"/>
      </g>
     </g>
    </g>
    <g id="xtick_10">
     <g id="line2d_72">
      <g>
       <use xlink:href="#m1483f26b04" x="208.623769" y="173.839655" style="stroke: #000000; stroke-width: 0.8"/>
      </g>
     </g>
     <g id="text_20">
      <!-- $\mathdefault{10}$ -->
      <g transform="translate(200.856388 192.601106) scale(0.17 -0.17)">
       <use xlink:href="#CMR17-31" transform="scale(0.996264)"/>
       <use xlink:href="#CMR17-30" transform="translate(45.690477 0) scale(0.996264)"/>
      </g>
     </g>
    </g>
    <g id="xtick_11">
     <g id="line2d_73">
      <g>
       <use xlink:href="#m1483f26b04" x="242.458735" y="173.839655" style="stroke: #000000; stroke-width: 0.8"/>
      </g>
     </g>
     <g id="text_21">
      <!-- $\mathdefault{12}$ -->
      <g transform="translate(234.691354 192.601106) scale(0.17 -0.17)">
       <use xlink:href="#CMR17-31" transform="scale(0.996264)"/>
       <use xlink:href="#CMR17-32" transform="translate(45.690477 0) scale(0.996264)"/>
      </g>
     </g>
    </g>
    <g id="xtick_12">
     <g id="line2d_74">
      <g>
       <use xlink:href="#m1483f26b04" x="276.2937" y="173.839655" style="stroke: #000000; stroke-width: 0.8"/>
      </g>
     </g>
     <g id="text_22">
      <!-- $\mathdefault{14}$ -->
      <g transform="translate(268.526319 192.601106) scale(0.17 -0.17)">
       <use xlink:href="#CMR17-31" transform="scale(0.996264)"/>
       <use xlink:href="#CMR17-34" transform="translate(45.690477 0) scale(0.996264)"/>
      </g>
     </g>
    </g>
    <g id="xtick_13">
     <g id="line2d_75">
      <g>
       <use xlink:href="#m1483f26b04" x="310.128666" y="173.839655" style="stroke: #000000; stroke-width: 0.8"/>
      </g>
     </g>
     <g id="text_23">
      <!-- $\mathdefault{16}$ -->
      <g transform="translate(302.361285 192.601106) scale(0.17 -0.17)">
       <use xlink:href="#CMR17-31" transform="scale(0.996264)"/>
       <use xlink:href="#CMR17-36" transform="translate(45.690477 0) scale(0.996264)"/>
      </g>
     </g>
    </g>
    <g id="xtick_14">
     <g id="line2d_76">
      <g>
       <use xlink:href="#m1483f26b04" x="343.963632" y="173.839655" style="stroke: #000000; stroke-width: 0.8"/>
      </g>
     </g>
     <g id="text_24">
      <!-- $\mathdefault{18}$ -->
      <g transform="translate(336.19625 192.601106) scale(0.17 -0.17)">
       <use xlink:href="#CMR17-31" transform="scale(0.996264)"/>
       <use xlink:href="#CMR17-38" transform="translate(45.690477 0) scale(0.996264)"/>
      </g>
     </g>
    </g>
    <g id="text_25">
     <!-- $n$ -->
     <g transform="translate(237.218034 212.348694) scale(0.18 -0.18)">
      <use xlink:href="#CMMI12-6e" transform="scale(0.996264)"/>
     </g>
    </g>
   </g>
   <g id="matplotlib.axis_4">
    <g id="ytick_54">
     <g id="line2d_77">
      <g>
       <use xlink:href="#m63cbb1bc71" x="132.495097" y="173.839655" style="stroke: #000000; stroke-width: 0.8"/>
      </g>
     </g>
     <g id="text_26">
      <!-- $\mathdefault{0.6}$ -->
      <g transform="translate(105.353814 179.72038) scale(0.17 -0.17)">
       <defs>
        <path id="CMMI12-3a" d="M 1178 307 
C 1178 492 1024 619 870 619 
C 685 619 557 466 557 313 
C 557 128 710 0 864 0 
C 1050 0 1178 153 1178 307 
z
" transform="scale(0.015625)"/>
       </defs>
       <use xlink:href="#CMR17-30" transform="scale(0.996264)"/>
       <use xlink:href="#CMMI12-3a" transform="translate(45.690477 0) scale(0.996264)"/>
       <use xlink:href="#CMR17-36" transform="translate(72.787654 0) scale(0.996264)"/>
      </g>
     </g>
    </g>
    <g id="ytick_55">
     <g id="line2d_78">
      <g>
       <use xlink:href="#m63cbb1bc71" x="132.495097" y="139.784919" style="stroke: #000000; stroke-width: 0.8"/>
      </g>
     </g>
     <g id="text_27">
      <!-- $\mathdefault{0.7}$ -->
      <g transform="translate(105.353814 145.665644) scale(0.17 -0.17)">
       <use xlink:href="#CMR17-30" transform="scale(0.996264)"/>
       <use xlink:href="#CMMI12-3a" transform="translate(45.690477 0) scale(0.996264)"/>
       <use xlink:href="#CMR17-37" transform="translate(72.787654 0) scale(0.996264)"/>
      </g>
     </g>
    </g>
    <g id="ytick_56">
     <g id="line2d_79">
      <g>
       <use xlink:href="#m63cbb1bc71" x="132.495097" y="105.730183" style="stroke: #000000; stroke-width: 0.8"/>
      </g>
     </g>
     <g id="text_28">
      <!-- $\mathdefault{0.8}$ -->
      <g transform="translate(105.353814 111.610908) scale(0.17 -0.17)">
       <use xlink:href="#CMR17-30" transform="scale(0.996264)"/>
       <use xlink:href="#CMMI12-3a" transform="translate(45.690477 0) scale(0.996264)"/>
       <use xlink:href="#CMR17-38" transform="translate(72.787654 0) scale(0.996264)"/>
      </g>
     </g>
    </g>
    <g id="ytick_57">
     <g id="line2d_80">
      <g>
       <use xlink:href="#m63cbb1bc71" x="132.495097" y="71.675447" style="stroke: #000000; stroke-width: 0.8"/>
      </g>
     </g>
     <g id="text_29">
      <!-- $\mathdefault{0.9}$ -->
      <g transform="translate(105.353814 77.556172) scale(0.17 -0.17)">
       <defs>
        <path id="CMR17-39" d="M 2253 1864 
C 2253 464 1670 31 1190 31 
C 1043 31 685 31 538 294 
C 704 268 826 357 826 518 
C 826 692 685 749 595 749 
C 538 749 365 723 365 506 
C 365 71 742 -128 1203 -128 
C 1939 -128 2688 674 2688 2073 
C 2688 3817 1971 4179 1485 4179 
C 851 4179 243 3628 243 2778 
C 243 1991 762 1408 1414 1408 
C 1952 1408 2189 1903 2253 2112 
L 2253 1864 
z
M 1427 1510 
C 1254 1510 1011 1542 813 1922 
C 678 2169 678 2461 678 2771 
C 678 3146 678 3405 858 3684 
C 947 3817 1114 4032 1485 4032 
C 2240 4032 2240 2885 2240 2632 
C 2240 2182 2035 1510 1427 1510 
z
" transform="scale(0.015625)"/>
       </defs>
       <use xlink:href="#CMR17-30" transform="scale(0.996264)"/>
       <use xlink:href="#CMMI12-3a" transform="translate(45.690477 0) scale(0.996264)"/>
       <use xlink:href="#CMR17-39" transform="translate(72.787654 0) scale(0.996264)"/>
      </g>
     </g>
    </g>
    <g id="ytick_58">
     <g id="line2d_81">
      <g>
       <use xlink:href="#m63cbb1bc71" x="132.495097" y="37.620711" style="stroke: #000000; stroke-width: 0.8"/>
      </g>
     </g>
     <g id="text_30">
      <!-- $\mathdefault{1.0}$ -->
      <g transform="translate(105.353814 43.501436) scale(0.17 -0.17)">
       <use xlink:href="#CMR17-31" transform="scale(0.996264)"/>
       <use xlink:href="#CMMI12-3a" transform="translate(45.690477 0) scale(0.996264)"/>
       <use xlink:href="#CMR17-30" transform="translate(72.787654 0) scale(0.996264)"/>
      </g>
     </g>
    </g>
    <g id="text_31">
     <!-- Fidelity -->
     <g transform="translate(97.86575 133.355591) rotate(-90) scale(0.18 -0.18)">
      <defs>
       <path id="CMR17-46" d="M 3482 4325 
L 326 4325 
L 326 4160 
C 768 4160 838 4160 838 3874 
L 838 446 
C 838 160 768 160 326 160 
L 326 0 
C 512 0 870 0 1069 0 
C 1331 0 1638 0 1901 0 
L 1901 160 
L 1760 160 
C 1274 160 1261 223 1261 452 
L 1261 2075 
L 1837 2075 
C 2432 2075 2490 1865 2490 1332 
L 2605 1332 
L 2605 2987 
L 2490 2987 
C 2490 2450 2432 2240 1837 2240 
L 1261 2240 
L 1261 3911 
C 1261 4128 1274 4160 1530 4160 
L 2355 4160 
C 3322 4160 3430 3765 3520 2916 
L 3635 2916 
L 3482 4325 
z
" transform="scale(0.015625)"/>
       <path id="CMR17-64" d="M 1869 4326 
L 1869 4160 
C 2246 4160 2304 4122 2304 3820 
L 2304 2345 
C 2278 2377 2016 2790 1498 2790 
C 845 2790 211 2208 211 1364 
C 211 525 806 -64 1434 -64 
C 1978 -64 2259 337 2291 380 
L 2291 -63 
L 3066 -63 
L 3066 128 
C 2688 128 2630 166 2630 473 
L 2630 4396 
L 1869 4326 
z
M 2291 755 
C 2291 563 2176 390 2029 262 
C 1811 70 1594 38 1472 38 
C 1286 38 621 134 621 1356 
C 621 2612 1363 2688 1530 2688 
C 1824 2688 2061 2522 2208 2291 
C 2291 2157 2291 2138 2291 2023 
L 2291 755 
z
" transform="scale(0.015625)"/>
       <path id="CMR17-6c" d="M 979 4396 
L 218 4326 
L 218 4160 
C 595 4160 653 4122 653 3817 
L 653 426 
C 653 184 627 153 218 153 
L 218 -13 
C 371 0 653 0 813 0 
C 979 0 1261 0 1414 -13 
L 1414 153 
C 1005 153 979 178 979 426 
L 979 4396 
z
" transform="scale(0.015625)"/>
       <path id="CMR17-74" d="M 966 2560 
L 1862 2560 
L 1862 2725 
L 966 2725 
L 966 3904 
L 851 3904 
C 838 3245 614 2668 70 2668 
L 70 2560 
L 627 2560 
L 627 771 
C 627 650 627 -64 1370 -64 
C 1747 -64 1965 306 1965 777 
L 1965 1140 
L 1850 1140 
L 1850 783 
C 1850 344 1677 51 1408 51 
C 1222 51 966 178 966 758 
L 966 2560 
z
" transform="scale(0.015625)"/>
       <path id="CMR17-79" d="M 2496 2197 
C 2656 2586 2944 2586 3034 2586 
L 3034 2752 
C 2912 2752 2752 2752 2630 2752 
C 2496 2752 2285 2752 2157 2758 
L 2157 2592 
C 2400 2573 2406 2394 2406 2343 
C 2406 2280 2394 2248 2362 2171 
L 1664 449 
L 902 2306 
C 870 2382 870 2426 870 2433 
C 870 2573 1018 2586 1171 2586 
L 1171 2758 
C 1018 2752 742 2752 582 2752 
C 410 2752 205 2752 64 2758 
L 64 2586 
C 410 2586 448 2554 531 2350 
L 1485 15 
C 1197 -738 1030 -1178 627 -1178 
C 557 -1178 397 -1159 282 -1044 
C 429 -1031 493 -942 493 -833 
C 493 -725 416 -629 288 -629 
C 147 -629 77 -725 77 -840 
C 77 -1095 339 -1280 627 -1280 
C 998 -1280 1229 -922 1357 -604 
L 2496 2197 
z
" transform="scale(0.015625)"/>
      </defs>
      <use xlink:href="#CMR17-46" transform="scale(0.996264)"/>
      <use xlink:href="#CMR17-69" transform="translate(59.983847 0) scale(0.996264)"/>
      <use xlink:href="#CMR17-64" transform="translate(84.854905 0) scale(0.996264)"/>
      <use xlink:href="#CMR17-65" transform="translate(135.750275 0) scale(0.996264)"/>
      <use xlink:href="#CMR17-6c" transform="translate(176.235935 0) scale(0.996264)"/>
      <use xlink:href="#CMR17-69" transform="translate(201.106994 0) scale(0.996264)"/>
      <use xlink:href="#CMR17-74" transform="translate(225.978052 0) scale(0.996264)"/>
      <use xlink:href="#CMR17-79" transform="translate(258.656366 0) scale(0.996264)"/>
     </g>
    </g>
   </g>
   <g id="LineCollection_3">
    <path d="M 140.953838 59.614899 
L 140.953838 48.985853 
" clip-path="url(#pdfd11bacfa)" style="fill: none; stroke: #c46e00; stroke-width: 1.5"/>
    <path d="M 174.788804 75.751502 
L 174.788804 61.75692 
" clip-path="url(#pdfd11bacfa)" style="fill: none; stroke: #c46e00; stroke-width: 1.5"/>
    <path d="M 208.623769 92.077974 
L 208.623769 75.827105 
" clip-path="url(#pdfd11bacfa)" style="fill: none; stroke: #c46e00; stroke-width: 1.5"/>
    <path d="M 242.458735 111.462828 
L 242.458735 93.295279 
" clip-path="url(#pdfd11bacfa)" style="fill: none; stroke: #c46e00; stroke-width: 1.5"/>
    <path d="M 276.2937 132.680517 
L 276.2937 113.175734 
" clip-path="url(#pdfd11bacfa)" style="fill: none; stroke: #c46e00; stroke-width: 1.5"/>
    <path d="M 310.128666 153.97669 
L 310.128666 133.84278 
" clip-path="url(#pdfd11bacfa)" style="fill: none; stroke: #c46e00; stroke-width: 1.5"/>
   </g>
   <g id="line2d_82">
    <defs>
     <path id="m1cc197a256" d="M 3 0 
L -3 -0 
" style="stroke: #c46e00"/>
    </defs>
    <g clip-path="url(#pdfd11bacfa)">
     <use xlink:href="#m1cc197a256" x="140.953838" y="59.614899" style="fill: #c46e00; stroke: #c46e00"/>
     <use xlink:href="#m1cc197a256" x="174.788804" y="75.751502" style="fill: #c46e00; stroke: #c46e00"/>
     <use xlink:href="#m1cc197a256" x="208.623769" y="92.077974" style="fill: #c46e00; stroke: #c46e00"/>
     <use xlink:href="#m1cc197a256" x="242.458735" y="111.462828" style="fill: #c46e00; stroke: #c46e00"/>
     <use xlink:href="#m1cc197a256" x="276.2937" y="132.680517" style="fill: #c46e00; stroke: #c46e00"/>
     <use xlink:href="#m1cc197a256" x="310.128666" y="153.97669" style="fill: #c46e00; stroke: #c46e00"/>
    </g>
   </g>
   <g id="line2d_83">
    <g clip-path="url(#pdfd11bacfa)">
     <use xlink:href="#m1cc197a256" x="140.953838" y="48.985853" style="fill: #c46e00; stroke: #c46e00"/>
     <use xlink:href="#m1cc197a256" x="174.788804" y="61.75692" style="fill: #c46e00; stroke: #c46e00"/>
     <use xlink:href="#m1cc197a256" x="208.623769" y="75.827105" style="fill: #c46e00; stroke: #c46e00"/>
     <use xlink:href="#m1cc197a256" x="242.458735" y="93.295279" style="fill: #c46e00; stroke: #c46e00"/>
     <use xlink:href="#m1cc197a256" x="276.2937" y="113.175734" style="fill: #c46e00; stroke: #c46e00"/>
     <use xlink:href="#m1cc197a256" x="310.128666" y="133.84278" style="fill: #c46e00; stroke: #c46e00"/>
    </g>
   </g>
   <g id="LineCollection_4">
    <path d="M 140.953838 54.479908 
L 140.953838 52.363105 
" clip-path="url(#pdfd11bacfa)" style="fill: none; stroke: #2c853c; stroke-width: 1.5"/>
    <path d="M 174.788804 68.180767 
L 174.788804 64.710416 
" clip-path="url(#pdfd11bacfa)" style="fill: none; stroke: #2c853c; stroke-width: 1.5"/>
    <path d="M 208.623769 86.119466 
L 208.623769 82.26688 
" clip-path="url(#pdfd11bacfa)" style="fill: none; stroke: #2c853c; stroke-width: 1.5"/>
    <path d="M 242.458735 103.832032 
L 242.458735 101.687525 
" clip-path="url(#pdfd11bacfa)" style="fill: none; stroke: #2c853c; stroke-width: 1.5"/>
    <path d="M 276.2937 122.406568 
L 276.2937 118.530915 
" clip-path="url(#pdfd11bacfa)" style="fill: none; stroke: #2c853c; stroke-width: 1.5"/>
    <path d="M 310.128666 142.271711 
L 310.128666 139.643195 
" clip-path="url(#pdfd11bacfa)" style="fill: none; stroke: #2c853c; stroke-width: 1.5"/>
    <path d="M 343.963632 162.925641 
L 343.963632 160.97076 
" clip-path="url(#pdfd11bacfa)" style="fill: none; stroke: #2c853c; stroke-width: 1.5"/>
   </g>
   <g id="line2d_84">
    <defs>
     <path id="mdd9ac7ed49" d="M 3 0 
L -3 -0 
" style="stroke: #2c853c"/>
    </defs>
    <g clip-path="url(#pdfd11bacfa)">
     <use xlink:href="#mdd9ac7ed49" x="140.953838" y="54.479908" style="fill: #2c853c; stroke: #2c853c"/>
     <use xlink:href="#mdd9ac7ed49" x="174.788804" y="68.180767" style="fill: #2c853c; stroke: #2c853c"/>
     <use xlink:href="#mdd9ac7ed49" x="208.623769" y="86.119466" style="fill: #2c853c; stroke: #2c853c"/>
     <use xlink:href="#mdd9ac7ed49" x="242.458735" y="103.832032" style="fill: #2c853c; stroke: #2c853c"/>
     <use xlink:href="#mdd9ac7ed49" x="276.2937" y="122.406568" style="fill: #2c853c; stroke: #2c853c"/>
     <use xlink:href="#mdd9ac7ed49" x="310.128666" y="142.271711" style="fill: #2c853c; stroke: #2c853c"/>
     <use xlink:href="#mdd9ac7ed49" x="343.963632" y="162.925641" style="fill: #2c853c; stroke: #2c853c"/>
    </g>
   </g>
   <g id="line2d_85">
    <g clip-path="url(#pdfd11bacfa)">
     <use xlink:href="#mdd9ac7ed49" x="140.953838" y="52.363105" style="fill: #2c853c; stroke: #2c853c"/>
     <use xlink:href="#mdd9ac7ed49" x="174.788804" y="64.710416" style="fill: #2c853c; stroke: #2c853c"/>
     <use xlink:href="#mdd9ac7ed49" x="208.623769" y="82.26688" style="fill: #2c853c; stroke: #2c853c"/>
     <use xlink:href="#mdd9ac7ed49" x="242.458735" y="101.687525" style="fill: #2c853c; stroke: #2c853c"/>
     <use xlink:href="#mdd9ac7ed49" x="276.2937" y="118.530915" style="fill: #2c853c; stroke: #2c853c"/>
     <use xlink:href="#mdd9ac7ed49" x="310.128666" y="139.643195" style="fill: #2c853c; stroke: #2c853c"/>
     <use xlink:href="#mdd9ac7ed49" x="343.963632" y="160.97076" style="fill: #2c853c; stroke: #2c853c"/>
    </g>
   </g>
   <g id="line2d_86">
    <defs>
     <path id="m391b4516e0" d="M 0 3.5 
C 0.928211 3.5 1.81853 3.131218 2.474874 2.474874 
C 3.131218 1.81853 3.5 0.928211 3.5 0 
C 3.5 -0.928211 3.131218 -1.81853 2.474874 -2.474874 
C 1.81853 -3.131218 0.928211 -3.5 0 -3.5 
C -0.928211 -3.5 -1.81853 -3.131218 -2.474874 -2.474874 
C -3.131218 -1.81853 -3.5 -0.928211 -3.5 0 
C -3.5 0.928211 -3.131218 1.81853 -2.474874 2.474874 
C -1.81853 3.131218 -0.928211 3.5 0 3.5 
z
" style="stroke: #c46e00"/>
    </defs>
    <g clip-path="url(#pdfd11bacfa)">
     <use xlink:href="#m391b4516e0" x="140.953838" y="54.300376" style="fill: #f8f0e5; stroke: #c46e00"/>
     <use xlink:href="#m391b4516e0" x="174.788804" y="68.754211" style="fill: #f8f0e5; stroke: #c46e00"/>
     <use xlink:href="#m391b4516e0" x="208.623769" y="83.95254" style="fill: #f8f0e5; stroke: #c46e00"/>
     <use xlink:href="#m391b4516e0" x="242.458735" y="102.379053" style="fill: #f8f0e5; stroke: #c46e00"/>
     <use xlink:href="#m391b4516e0" x="276.2937" y="122.928126" style="fill: #f8f0e5; stroke: #c46e00"/>
     <use xlink:href="#m391b4516e0" x="310.128666" y="143.909735" style="fill: #f8f0e5; stroke: #c46e00"/>
    </g>
   </g>
   <g id="line2d_87">
    <defs>
     <path id="m38a7c383f4" d="M -3 3 
L 3 3 
L 3 -3 
L -3 -3 
z
" style="stroke: #2c853c; stroke-linejoin: miter"/>
    </defs>
    <g clip-path="url(#pdfd11bacfa)">
     <use xlink:href="#m38a7c383f4" x="140.953838" y="53.421506" style="fill: #e9f2eb; stroke: #2c853c; stroke-linejoin: miter"/>
     <use xlink:href="#m38a7c383f4" x="174.788804" y="66.445592" style="fill: #e9f2eb; stroke: #2c853c; stroke-linejoin: miter"/>
     <use xlink:href="#m38a7c383f4" x="208.623769" y="84.193173" style="fill: #e9f2eb; stroke: #2c853c; stroke-linejoin: miter"/>
     <use xlink:href="#m38a7c383f4" x="242.458735" y="102.759778" style="fill: #e9f2eb; stroke: #2c853c; stroke-linejoin: miter"/>
     <use xlink:href="#m38a7c383f4" x="276.2937" y="120.468742" style="fill: #e9f2eb; stroke: #2c853c; stroke-linejoin: miter"/>
     <use xlink:href="#m38a7c383f4" x="310.128666" y="140.957453" style="fill: #e9f2eb; stroke: #2c853c; stroke-linejoin: miter"/>
     <use xlink:href="#m38a7c383f4" x="343.963632" y="161.9482" style="fill: #e9f2eb; stroke: #2c853c; stroke-linejoin: miter"/>
    </g>
   </g>
   <g id="patch_8">
    <path d="M 132.495097 173.839655 
L 132.495097 37.620711 
" style="fill: none; stroke: #000000; stroke-width: 0.8; stroke-linejoin: miter; stroke-linecap: square"/>
   </g>
   <g id="patch_9">
    <path d="M 352.422373 173.839655 
L 352.422373 37.620711 
" style="fill: none; stroke: #000000; stroke-width: 0.8; stroke-linejoin: miter; stroke-linecap: square"/>
   </g>
   <g id="patch_10">
    <path d="M 132.495097 173.839655 
L 352.422373 173.839655 
" style="fill: none; stroke: #000000; stroke-width: 0.8; stroke-linejoin: miter; stroke-linecap: square"/>
   </g>
   <g id="patch_11">
    <path d="M 132.495097 37.620711 
L 352.422373 37.620711 
" style="fill: none; stroke: #000000; stroke-width: 0.8; stroke-linejoin: miter; stroke-linecap: square"/>
   </g>
   <g id="legend_2">
    <g id="LineCollection_5">
     <path d="M 160.995097 138.778165 
L 160.995097 123.778165 
" style="fill: none; stroke: #c46e00; stroke-width: 1.5"/>
    </g>
    <g id="line2d_88">
     <g>
      <use xlink:href="#m1cc197a256" x="160.995097" y="138.778165" style="fill: #c46e00; stroke: #c46e00"/>
     </g>
    </g>
    <g id="line2d_89">
     <g>
      <use xlink:href="#m1cc197a256" x="160.995097" y="123.778165" style="fill: #c46e00; stroke: #c46e00"/>
     </g>
    </g>
    <g id="line2d_90"/>
    <g id="line2d_91">
     <g>
      <use xlink:href="#m391b4516e0" x="160.995097" y="131.278165" style="fill: #f8f0e5; stroke: #c46e00"/>
     </g>
    </g>
    <g id="text_32">
     <!-- QT -->
     <g transform="translate(187.995097 136.528165) scale(0.15 -0.15)">
      <use xlink:href="#CMR17-51" transform="scale(0.996264)"/>
      <use xlink:href="#CMR17-54" transform="translate(71.714788 0) scale(0.996264)"/>
     </g>
    </g>
    <g id="LineCollection_6">
     <path d="M 160.995097 159.68391 
L 160.995097 144.68391 
" style="fill: none; stroke: #2c853c; stroke-width: 1.5"/>
    </g>
    <g id="line2d_92">
     <g>
      <use xlink:href="#mdd9ac7ed49" x="160.995097" y="159.68391" style="fill: #2c853c; stroke: #2c853c"/>
     </g>
    </g>
    <g id="line2d_93">
     <g>
      <use xlink:href="#mdd9ac7ed49" x="160.995097" y="144.68391" style="fill: #2c853c; stroke: #2c853c"/>
     </g>
    </g>
    <g id="line2d_94"/>
    <g id="line2d_95">
     <g>
      <use xlink:href="#m38a7c383f4" x="160.995097" y="152.18391" style="fill: #e9f2eb; stroke: #2c853c; stroke-linejoin: miter"/>
     </g>
    </g>
    <g id="text_33">
     <!-- QMC -->
     <g transform="translate(187.995097 157.43391) scale(0.15 -0.15)">
      <use xlink:href="#CMR17-51" transform="scale(0.996264)"/>
      <use xlink:href="#CMR17-4d" transform="translate(71.714788 0) scale(0.996264)"/>
      <use xlink:href="#CMR17-43" transform="translate(156.401729 0) scale(0.996264)"/>
     </g>
    </g>
   </g>
  </g>
 </g>
 <defs>
  <clipPath id="p5826a10992">
   <rect x="73.283907" y="18.410347" width="563.916093" height="349.279343"/>
  </clipPath>
  <clipPath id="pdfd11bacfa">
   <rect x="132.495097" y="37.620711" width="219.927276" height="136.218944"/>
  </clipPath>
 </defs>
</svg>
